# xmcd
#
# Track frame offsets:
#	150
#	26501
#	46094
#	75374
#	91375
#	109487
#	136699
#	162953
#	187057
#	206861
#
# Disc length: 3165 seconds
#
# Revision: 1
# Processed by: cddbd v1.5.1PL0 Copyright (c) Steve Scherf et al.
# Submitted via: EasyCDDAExtractor 8.0.2.1
#
DISCID=7e0c5b0a
DTITLE=Dio - Zepp Nagoya 27-05-05 Disc 1
DYEAR=2005
DGENRE=Hard Rock
TTITLE0=Killing The Dragon
TTITLE1=Egypt
TTITLE2=Stargazer
TTITLE3=Stand Up And Shout
TTITLE4=Drum Solo
TTITLE5=Holy Diver
TTITLE6=Sunset Superman
TTITLE7=Straight Through The Heart
TTITLE8=Man On The Silver Mountain
TTITLE9=Guitar Solo
EXTD=
EXTT0=
EXTT1=
EXTT2=
EXTT3=
EXTT4=
EXTT5=
EXTT6=
EXTT7=
EXTT8=
EXTT9=
PLAYORDER=
